# xmcd
#
# Track frame offsets:
# 150
# 16990
# 27967
# 40737
# 61122
# 71930
# 94787
#
# Disc length: 1438 seconds
#
#
# Revision: 0
# Processed by: cddbd v1.5.1PL2 Copyright (c) Steve Scherf et al.
# Submitted via: Nero 7, 0, 5, 4 
#
DISCID=54059c07
DTITLE=Colin Hodgkinson - Bass Master
DYEAR=2000
DGENRE=blues
TTITLE0=32-20 Blues
TTITLE1=Blues For Jimmy Vancey
TTITLE2=The San Francisco Bay Blues (Jesse Fuller)
TTITLE3=Southpaw Rag
TTITLE4=The Sliding Delta (John Hurt)
TTITLE5=Jenny's Rag
TTITLE6=Are You Sure
EXTD=
EXTT0=
EXTT1=
EXTT2=
EXTT3=
EXTT4=
EXTT5=
EXTT6=
PLAYORDER=
